<?xml version="1.0" encoding="UTF-8"?>
<svg width="133px" height="31px" viewBox="0 0 133 31" version="1.1" xmlns="http://www.w3.org/2000/svg" xmlns:xlink="http://www.w3.org/1999/xlink">
    <!-- Generator: Sketch 60.1 (88133) - https://sketch.com -->
    <title>交易首页133*31</title>
    <desc>Created with Sketch.</desc>
    <defs>
        <polygon id="path-1" points="0 0 33 0 33 29 0 29"></polygon>
        <polygon id="path-3" points="0 0.0732984293 10 0.0732984293 10 15.0732984 0 15.0732984"></polygon>
        <polygon id="path-5" points="0 0.0732984293 15 0.0732984293 15 15.0732984 0 15.0732984"></polygon>
        <polygon id="path-7" points="0 0.0732984293 12 0.0732984293 12 15.0732984 0 15.0732984"></polygon>
        <polygon id="path-9" points="0 30.2460733 133 30.2460733 133 1 0 1"></polygon>
    </defs>
    <g id="交易首页133*31" stroke="none" stroke-width="1" fill="none" fill-rule="evenodd">
        <g id="newlogo2">
            <rect id="矩形" x="0" y="0" width="133" height="31"></rect>
            <g id="编组" transform="translate(2.000000, 1.000000)">
                <mask id="mask-2" fill="white">
                    <use xlink:href="#path-1"></use>
                </mask>
                <g id="Clip-2"></g>
                <path d="M32.9328871,13.6783703 C32.7615727,13.4987214 16.5776606,0.132973984 16.5776606,0.132973984 C16.5776606,0.132973984 16.2522515,-0.16621748 15.9690088,0.132973984 L0.0387566936,20.0382558 C0.0387566936,20.0382558 -0.048445867,20.2652748 0.0387566936,20.3535352 C0.12618002,20.4415721 9.55465333,28.2446821 9.55465333,28.2446821 C9.55465333,28.2446821 10.0153919,28.484214 10.0279756,27.904377 C10.0279756,27.904377 8.99412852,25.1944486 9.72905845,22.1437682 C9.72905845,22.1437682 10.0714665,19.8049803 11.7901296,17.2523565 C11.9872736,16.9940552 13.8640052,13.9241587 17.6379995,11.7308328 C17.6379995,11.7308328 19.2694601,10.5331731 22.5202391,10.1801317 C22.5202391,10.1801317 25.5345777,9.95333605 26.8174488,10.8734783 C27.552158,11.2517689 28.6233145,12.1971603 28.9222317,13.155288 C29.320935,14.1764269 29.1465299,15.386376 28.0380639,17.1388469 C27.0664729,18.8280833 25.0486718,20.0257429 23.9525688,20.4543084 C22.9189425,20.9586214 20.9137251,21.9417749 16.7163016,22.3578275 C16.6540456,22.3955896 16.4796405,22.3578275 16.4048008,22.5973594 C16.3301819,22.8368914 16.0811579,23.9210415 16.1122859,25.1249575 C16.3052353,26.4801452 16.2802888,27.3245399 17.3264988,28.2826676 C17.3264988,28.2826676 18.5036229,29.29755 20.5649149,28.913003 C20.5649149,28.913003 23.7596193,28.5599615 25.9392418,24.7466669 C27.6673978,21.9764087 32.9328871,14.0754302 32.9328871,14.0754302 C32.9328871,14.0754302 33.0838911,13.8674039 32.9328871,13.6783703" id="Fill-1" fill="#FF6C39" mask="url(#mask-2)"></path>
            </g>
            <path d="M24.3861093,18.9299136 C25.4087886,16.8052458 24.8449256,15.957683 24.8449256,15.957683 C24.8449256,15.957683 24.539048,15.185116 23.7361759,14.9827357 C22.98097,14.8355697 21.9580648,14.8079625 20.3618086,17.1534879 C18.68897,20.1337616 18.0315817,22.8142688 18.0006325,22.9331755 C17.9911444,23.1566416 18.0867029,23.3070683 18.4022945,23.2794611 C21.5518847,22.819486 23.614864,20.3880956 24.3861093,18.9299136" id="Fill-3" fill="#FF6C39"></path>
            <g id="编组" transform="translate(86.000000, 14.926702)">
                <mask id="mask-4" fill="white">
                    <use xlink:href="#path-3"></use>
                </mask>
                <g id="Clip-6"></g>
                <polygon id="Fill-5" fill="#FF6C39" mask="url(#mask-4)" points="10 2.16724841 10 0.0732984293 4.42076642 0.0732984293 0.64836978 0.0732984293 0 0.0732984293 0 15.0732984 0.64836978 15.0732984 4.42076642 15.0732984 10 15.0732984 10 12.9791283 4.42076642 12.9791283 4.42076642 8.58934082 9.42274174 8.58934082 9.42274174 6.49539084 4.42076642 6.49539084 4.42076642 2.16724841"></polygon>
            </g>
            <g id="编组" transform="translate(68.000000, 14.926702)">
                <mask id="mask-6" fill="white">
                    <use xlink:href="#path-5"></use>
                </mask>
                <g id="Clip-8"></g>
                <polygon id="Fill-7" fill="#FF6C39" mask="url(#mask-6)" points="10.9204928 0.0732984293 6.64303568 9.66812905 3.06900348 0.0732984293 0 0.0732984293 0 15.0732984 2.12254887 15.0732984 2.12254887 9.57654213 4.3423989 15.0732984 6.43861398 15.0732984 10.7546791 5.44060014 10.7546791 15.0732984 15 15.0732984 15 0.0732984293"></polygon>
            </g>
            <g id="编组" transform="translate(36.000000, 14.926702)">
                <mask id="mask-8" fill="white">
                    <use xlink:href="#path-7"></use>
                </mask>
                <g id="Clip-10"></g>
                <polygon id="Fill-9" fill="#FF6C39" mask="url(#mask-8)" points="12 0.0732984293 9.79116031 0.0732984293 9.79116031 9.0389093 3.19204273 0.0732984293 0 0.0732984293 0 15.0732984 2.20883969 15.0732984 2.20883969 5.40383327 9.19506154 15.0732984 12 15.0732984"></polygon>
            </g>
            <polygon id="Fill-11" fill="#FFFFFF" points="131.457891 15.6 130 22.4918604 131.757832 22.8481518 132.996483 16.8833455 133 15.6"></polygon>
            <mask id="mask-10" fill="white">
                <use xlink:href="#path-9"></use>
            </mask>
            <g id="Clip-14"></g>
            <polygon id="Fill-13" fill="#FFFFFF" mask="url(#mask-10)" points="99 25.3890052 101 25.3890052 101 23.3 99 23.3"></polygon>
            <polygon id="Fill-15" fill="#FFFFFF" mask="url(#mask-10)" points="103.121113 23.9790576 103.121113 26.2332299 99 30.2460733 101.743779 30.2460733 105 27.0751261 105 23.9790576"></polygon>
            <polygon id="Fill-16" fill="#FFFFFF" mask="url(#mask-10)" points="118 17.0157068 133 17.0157068 133 15.6230366 118 15.6230366"></polygon>
            <polygon id="Fill-17" fill="#FFFFFF" mask="url(#mask-10)" points="118 22.5863874 132 22.5863874 132 21.1937173 118 21.1937173"></polygon>
            <path d="M120,29 L131,29 L131,25 L120,25 L120,29 Z M118,24 L118,30 L131.743208,30 C132.257077,30 133,29.6298622 133,28.8126013 L133,24 L118,24 Z" id="Fill-18" fill="#FFFFFF" mask="url(#mask-10)"></path>
            <path d="M121.959982,18.408377 C120.983837,18.408377 120,18.9313438 120,19.7503685 L120,22.5863874 L123,22.5863874 L123,18.408377 L121.959982,18.408377 Z" id="Fill-19" fill="#FFFFFF" mask="url(#mask-10)"></path>
            <path d="M117.6932,19.104712 C118.344259,19.104712 119,18.5817452 119,17.7629495 L119,14.9267016 L117,14.9267016 L117,19.104712 L117.6932,19.104712 Z" id="Fill-20" fill="#FFFFFF" mask="url(#mask-10)"></path>
            <path d="M111.999341,18.408377 L109.424883,18.408377 L100,18.408377 L100,19.8010471 L110.712222,19.8010471 C111.423455,19.8010471 112,19.1891304 112,18.4342622 C112,18.4256338 111.999341,18.4170054 111.999341,18.408377" id="Fill-21" fill="#FFFFFF" mask="url(#mask-10)"></path>
            <polygon id="Fill-22" fill="#FFFFFF" mask="url(#mask-10)" points="100 25.3926702 115 25.3926702 115 24 100 24"></polygon>
            <polygon id="Fill-23" fill="#FFFFFF" mask="url(#mask-10)" points="109.121257 23.9790576 109.121257 26.2332299 105 30.2460733 107.743874 30.2460733 111 27.0751261 111 23.9790576"></polygon>
            <path d="M112.994411,23.9790576 L112.994411,28.9827242 L112,28.9827242 L112,30.2460733 L113.689247,30.2460733 C114.489604,30.2460733 115,29.628577 115,29.0057904 L115,23.9790576 L112.994411,23.9790576 Z" id="Fill-24" fill="#FFFFFF" mask="url(#mask-10)"></path>
            <path d="M101,21 L113,21 L113,16 L101,16 L101,21 Z M99,15 L99,23 L113.69505,23 C114.470852,23 115,22.3102817 115,21.5690481 L115,15 L99,15 Z" id="Fill-25" fill="#FFFFFF" mask="url(#mask-10)"></path>
            <path d="M57.6344618,21 C57.2301938,21 56.8681718,21.2641415 56.5273739,21.8074752 C56.026688,22.6066725 55.8706405,23.4926627 56.1103714,24.177474 C56.2765256,24.6523266 56.6013549,24.9397968 57.0246235,24.9874577 C57.0996152,24.9957356 57.1758197,25 57.25162,25 L57.2518221,25 C57.6399194,25 58.1782023,24.8931393 58.538405,24.3829173 C58.9143743,23.8498683 59.0637513,22.9219867 58.9752166,21.6845604 C58.6623132,21.3883105 58.1381797,21 57.6344618,21 M57.2349708,27 L57.2347546,27 C57.0970787,27 56.9578899,26.9930726 56.8210785,26.9794566 C55.680119,26.8655121 54.728491,26.1089878 54.2754789,24.956166 C53.7386077,23.5900269 53.9960205,21.9532398 54.9640746,20.5777844 C55.88177,19.2737534 56.9280637,19 57.6441081,19 C58.3482653,19 59.0692808,19.2505823 59.7868382,19.7452971 C60.2880477,20.0909525 60.6107324,20.4387578 60.6459618,20.4772171 L60.8752776,20.7287549 L60.9178556,21.0830099 C61.1607876,23.1008062 60.8642549,24.6532696 60.0366865,25.6974022 C59.3712168,26.5375336 58.3761463,27 57.2349708,27" id="Fill-26" fill="#FF6C39" mask="url(#mask-10)"></path>
            <path d="M57.5488356,30.2460733 C57.1635993,30.2460733 56.7850745,30.224263 56.4148271,30.1808671 C55.1215338,30.0293189 53.9284647,29.6124491 52.8685056,28.9421745 C51.2306921,27.9060707 50.2537311,26.3231344 50.0432158,24.3640258 C49.8711794,22.7608531 50.2454536,21.2894418 50.5904213,20.3374315 C51.0192819,19.1520281 51.6456824,18.0965873 52.3085483,17.4418273 C54.6671698,15.1119428 57.0515184,14.8063732 58.6365353,14.959945 C59.6602526,15.0593282 60.6759162,15.3833355 61.573906,15.8973401 C62.3819626,16.3596294 63.0631731,16.9597512 63.4915863,17.5873045 L63.5119443,17.6183336 C64.2182109,18.741454 64.6786152,19.8400657 64.8801819,20.8835895 C65.0596009,21.811541 65.0374532,22.6994693 64.8141862,23.5230909 C64.4070259,25.0239574 63.4106017,25.9968786 62.6810689,26.3737254 C61.9448246,26.7543946 61.0190942,26.7683352 60.2654002,26.4101509 C59.5866506,26.0877176 59.1257988,25.5033352 58.9671853,24.7651563 C58.8870955,24.3921319 58.8168491,23.640462 59.1300494,21.4263748 C59.2940321,20.2684029 59.4844131,19.2655768 59.4924668,19.2233052 L61.4199905,19.5945307 L60.4562286,19.4088055 L61.4199905,19.5943059 C61.4179771,19.6044241 61.2291621,20.5993805 61.0721145,21.7112584 C60.7877735,23.7243307 60.8667447,24.2617196 60.8855367,24.3489609 C60.9146196,24.4847697 60.9801679,24.5679638 61.1041057,24.6268742 C61.3016456,24.720861 61.5940403,24.7177131 61.7839739,24.619679 C62.0097018,24.5029824 62.6546706,23.9849305 62.920667,23.0041396 C63.2461716,21.8043458 62.8806222,20.3124733 61.8636163,18.6890642 C61.3307284,17.9223294 59.9922449,17.0732999 58.4481677,16.9233257 C56.7709805,16.7605351 55.1239947,17.4263127 53.6841685,18.8487069 C52.8275658,19.6945885 51.7642511,22.0085086 51.9944532,24.152443 C52.1400913,25.509631 52.785955,26.5594506 53.9139232,27.2726713 C57.4938019,29.5368998 61.898292,27.2576064 61.9425875,27.234447 L62.8557899,28.9803988 C62.8003087,29.0096291 61.4756954,29.7021638 59.6114829,30.0493305 C58.9090195,30.1804174 58.2186367,30.2460733 57.5488356,30.2460733" id="Fill-27" fill="#FF6C39" mask="url(#mask-10)"></path>
        </g>
    </g>
</svg>